<?xml version="1.0" encoding="iso-8859-1"?>
<!-- Generator: Adobe Illustrator 19.0.0, SVG Export Plug-In . SVG Version: 6.00 Build 0)  -->
<svg version="1.1" id="Capa_1" xmlns="http://www.w3.org/2000/svg" xmlns:xlink="http://www.w3.org/1999/xlink" x="0px" y="0px"
	 viewBox="0 0 472 472" style="enable-background:new 0 0 472 472;" xml:space="preserve">
<path style="fill:#C69C6D;" d="M236,96c-26.51,0-48-21.49-48-48s21.49-48,48-48s48,21.49,48,48
	C283.974,74.499,262.499,95.974,236,96z M236,16c-17.673,0-32,14.327-32,32s14.327,32,32,32s32-14.327,32-32S253.673,16,236,16z"/>
<path style="fill:#8C6239;" d="M236,56L236,56c8.837,0,16,7.163,16,16v48l0,0h-32l0,0V72C220,63.163,227.163,56,236,56z"/>
<circle style="fill:#0071BC;" cx="236" cy="288" r="184"/>
<circle style="fill:#29ABE2;" cx="236" cy="288" r="144"/>
<rect x="148" y="280" style="fill:#0071BC;" width="176" height="16"/>
<rect x="156.806" y="280" transform="matrix(-0.7071 0.7071 -0.7071 -0.7071 606.5287 324.7678)" style="fill:#E6E6E6;" width="158.393" height="16"/>
<rect x="228" y="200" style="fill:#0071BC;" width="16" height="184"/>
<g>
	<rect x="116" y="280" style="fill:#FBB03B;" width="16" height="16"/>
	<rect x="340" y="280" style="fill:#FBB03B;" width="16" height="16"/>
	<rect x="228" y="168" style="fill:#FBB03B;" width="16" height="16"/>
	<rect x="228" y="400" style="fill:#FBB03B;" width="16" height="16"/>
</g>
<polygon style="fill:#DA4836;" points="207.712,316.288 298.224,350.224 264.288,259.712 173.776,225.776 "/>
<rect x="228" y="280" style="fill:#FBB03B;" width="16" height="16"/>
<g>
</g>
<g>
</g>
<g>
</g>
<g>
</g>
<g>
</g>
<g>
</g>
<g>
</g>
<g>
</g>
<g>
</g>
<g>
</g>
<g>
</g>
<g>
</g>
<g>
</g>
<g>
</g>
<g>
</g>
</svg>
